#!OML:ASF E:\Style4\Style4.ASF
:FULLY-SPECIFIED
:DEGREES
2924
root 0.706512 18.1348 -0.915044 3.61922 -35.5336 2.51247
lowerback 6.30172 2.21585 -7.69493
upperback 4.8669 2.50427 -5.52792
thorax 1.45207 1.09362 -1.55421
lowerneck 1.57722 9.89468 0.6322
upperneck 13.7415 13.1076 0.336574
head 4.27478 6.43226 0.420381
rclavicle -7.31528e-014 -1.43125e-014
rhumerus -32.6888 17.5091 -100.558
rradius 48.2282
rwrist 3.09626
rhand 8.52215 -1.09042
rfingers 7.12502
rthumb 33.7233 -27.9352
lclavicle -7.31528e-014 -1.43125e-014
lhumerus -43.4721 -8.64426 84.4768
lradius 55.0585
lwrist 4.01971
lhand -13.3557 34.6215
lfingers 7.12502
lthumb 12.7503 64.2122
rfemur -19.1238 18.0063 13.1372
rtibia 19.3203
rfoot -9.14876 6.82761
rtoes -8.72651
lfemur -6.92093 8.93598 -25.374
ltibia 17.0471
lfoot -26.5667 28.5238
ltoes 3.31133
2925
root 0.704921 18.1351 -0.913306 3.60654 -35.4051 2.54256
lowerback 6.34604 2.1558 -7.72658
upperback 4.79164 2.413 -5.46454
thorax 1.34703 1.0509 -1.46806
lowerneck 1.60699 9.89599 0.604196
upperneck 13.7087 13.1127 0.314098
head 4.25683 6.43337 0.414602
rclavicle -1.23246e-014 -4.45278e-014
rhumerus -32.7283 17.6139 -100.499
rradius 48.1471
rwrist 3.10405
rhand 8.59155 -1.05141
rfingers 7.12502
rthumb 33.7893 -27.8817
lclavicle -1.23246e-014 -4.45278e-014
lhumerus -43.2945 -8.65909 84.5611
lradius 54.5166
lwrist 4.01017
lhand -13.377 34.3833
lfingers 7.12502
lthumb 12.7298 63.9753
rfemur -19.1064 17.9445 13.1166
rtibia 19.352
rfoot -9.20338 6.76943
rtoes -8.95432
lfemur -6.91277 8.87445 -25.3895
ltibia 17.0194
lfoot -26.4873 28.4909
ltoes 3.23411
2926
root 0.701052 18.1349 -0.91066 3.59464 -35.3327 2.60053
lowerback 6.35863 2.1536 -7.7831
upperback 4.70457 2.3997 -5.42233
thorax 1.24538 1.04681 -1.39377
lowerneck 1.72376 9.85124 0.613997
upperneck 13.5987 13.0548 0.285037
head 4.19722 6.40672 0.390601
rclavicle 4.33351e-014 0
rhumerus -32.7869 17.5702 -100.422
rradius 48.1114
rwrist 3.1604
rhand 8.60159 -1.09195
rfingers 7.12502
rthumb 33.7988 -27.9201
lclavicle 4.33351e-014 0
lhumerus -43.1404 -8.79318 84.6551
lradius 54.0043
lwrist 4.01227
lhand -13.3959 34.182
lfingers 7.12502
lthumb 12.7115 63.7751
rfemur -19.1061 17.915 13.0654
rtibia 19.3746
rfoot -9.23131 6.71984
rtoes -9.06651
lfemur -6.91788 8.88474 -25.4388
ltibia 17.0116
lfoot -26.377 28.4891
ltoes 3.02541
2927
root 0.697797 18.1343 -0.909117 3.60561 -35.2571 2.62889
lowerback 6.34444 2.16904 -7.79463
upperback 4.64131 2.41713 -5.39796
thorax 1.1849 1.05796 -1.36334
lowerneck 1.71378 9.77804 0.644338
upperneck 13.5633 12.9588 0.272582
head 4.18891 6.36163 0.378208
rclavicle -3.97569e-015 -1.59028e-014
rhumerus -32.7678 17.4938 -100.339
rradius 48.0659
rwrist 3.19275
rhand 8.81761 -1.21621
rfingers 7.12502
rthumb 34.004 -27.9991
lclavicle -3.97569e-015 -1.59028e-014
lhumerus -43.0015 -9.0334 84.7854
lradius 53.6254
lwrist 4.25416
lhand -13.6405 34.23
lfingers 7.12502
lthumb 12.4757 63.8376
rfemur -19.1211 17.8767 13.0393
rtibia 19.3993
rfoot -9.26265 6.6615
rtoes -9.06344
lfemur -6.92535 8.89206 -25.4622
ltibia 16.9961
lfoot -26.2754 28.4481
ltoes 2.6296
2928
root 0.695067 18.1348 -0.908947 3.69293 -35.1547 2.52311
lowerback 6.34923 2.15136 -7.71398
upperback 4.57937 2.39394 -5.33168
thorax 1.11757 1.05098 -1.33816
lowerneck 1.61497 9.73752 0.639211
upperneck 13.6274 12.9052 0.290301
head 4.22884 6.33508 0.391331
rclavicle -9.78021e-014 -2.70347e-014
rhumerus -32.777 17.4572 -100.282
rradius 48.0229
rwrist 3.21227
rhand 8.95314 -1.37539
rfingers 7.12502
rthumb 34.1328 -28.1296
lclavicle -9.78021e-014 -2.70347e-014
lhumerus -42.831 -9.2807 84.9063
lradius 53.2257
lwrist 4.45244
lhand -13.6229 34.3789
lfingers 7.12502
lthumb 12.4927 63.9855
rfemur -19.1316 17.8736 13.1341
rtibia 19.4275
rfoot -9.31056 6.56173
rtoes -9.15898
lfemur -6.92787 8.85884 -25.3562
ltibia 16.9468
lfoot -26.1654 28.3856
ltoes 2.45373
2929
root 0.692838 18.1355 -0.908128 3.68024 -35.06 2.54448
lowerback 6.38781 2.13735 -7.72459
upperback 4.50975 2.36559 -5.29377
thorax 1.02207 1.04018 -1.29345
lowerneck 1.59314 9.69851 0.642532
upperneck 13.6785 12.855 0.284061
head 4.25206 6.30984 0.39051
rclavicle -1.98785e-014 -3.18055e-015
rhumerus -32.8606 17.423 -100.239
rradius 47.9878
rwrist 3.28977
rhand 9.01035 -1.29935
rfingers 7.12502
rthumb 34.1871 -28.0414
lclavicle -1.98785e-014 -3.18055e-015
lhumerus -42.6645 -9.40291 84.959
lradius 52.8414
lwrist 4.29895
lhand -13.1218 34.7069
lfingers 7.12502
lthumb 12.9758 64.2833
rfemur -19.102 17.8077 13.1296
rtibia 19.4503
rfoot -9.37152 6.53856
rtoes -9.13876
lfemur -6.8827 8.83733 -25.3602
ltibia 16.8729
lfoot -26.1491 28.2672
ltoes 2.77755
2930
root 0.69007 18.1362 -0.90641 3.57951 -34.9826 2.66819
lowerback 6.4492 2.15716 -7.80751
upperback 4.46174 2.37642 -5.28017
thorax 0.934119 1.04674 -1.2373
lowerneck 1.56793 9.65041 0.728069
upperneck 13.7141 12.7992 0.204726
head 4.28249 6.283 0.353289
rclavicle 6.55989e-014 -4.13472e-014
rhumerus -32.8702 17.3395 -100.166
rradius 47.9112
rwrist 3.39016
rhand 9.0732 -1.29268
rfingers 7.12502
rthumb 34.2468 -28.0213
lclavicle 6.55989e-014 -4.13472e-014
lhumerus -42.5411 -9.49894 85.0486
lradius 52.5853
lwrist 4.0562
lhand -12.6597 35.1022
lfingers 7.12502
lthumb 13.4212 64.6498
rfemur -19.0307 17.7588 13.033
rtibia 19.4454
rfoot -9.3712 6.54341
rtoes -8.82548
lfemur -6.78912 8.79849 -25.454
ltibia 16.7848
lfoot -26.1529 28.238
ltoes 2.8725
2931
root 0.687801 18.137 -0.905227 3.56881 -34.8904 2.72771
lowerback 6.45539 2.17539 -7.84999
upperback 4.42273 2.39526 -5.24928
thorax 0.886435 1.05708 -1.18379
lowerneck 1.42554 9.6104 0.737846
upperneck 13.7829 12.7448 0.238102
head 4.33248 6.25745 0.371696
rclavicle -2.74323e-014 3.33958e-014
rhumerus -32.7944 17.2998 -100.087
rradius 47.7672
rwrist 3.42912
rhand 9.20158 -1.37959
rfingers 7.12502
rthumb 34.3687 -28.0807
lclavicle -2.74323e-014 3.33958e-014
lhumerus -42.4135 -9.61612 85.1733
lradius 52.362
lwrist 3.94199
lhand -12.44 35.2374
lfingers 7.12502
lthumb 13.6329 64.771
rfemur -19.04 17.7055 12.9746
rtibia 19.473
rfoot -9.39987 6.49668
rtoes -8.81608
lfemur -6.7237 8.71959 -25.4998
ltibia 16.6262
lfoot -26.0638 28.2589
ltoes 2.83442
2932
root 0.684939 18.1379 -0.905536 3.59171 -34.7537 2.75429
lowerback 6.47274 2.17421 -7.89282
upperback 4.36696 2.38611 -5.19939
thorax 0.815128 1.05437 -1.10922
lowerneck 1.36486 9.57053 0.686132
upperneck 13.7956 12.6866 0.307348
head 4.33876 6.22967 0.403799
rclavicle -2.74323e-014 -1.59028e-015
rhumerus -32.7356 17.3245 -100.023
rradius 47.5705
rwrist 3.45461
rhand 9.26663 -1.46925
rfingers 7.12502
rthumb 34.4304 -28.1564
lclavicle -2.74323e-014 -1.59028e-015
lhumerus -42.3163 -9.82684 85.3336
lradius 52.0725
lwrist 3.9411
lhand -12.2789 35.2331
lfingers 7.12502
lthumb 13.7882 64.7562
rfemur -19.0615 17.6815 12.9354
rtibia 19.4945
rfoot -9.43172 6.42059
rtoes -8.69159
lfemur -6.67387 8.61023 -25.5192
ltibia 16.4587
lfoot -25.8549 28.2839
ltoes 2.93254
2933
root 0.682496 18.1396 -0.906173 3.56414 -34.601 2.8819
lowerback 6.55637 2.17075 -8.03232
upperback 4.27215 2.35674 -5.16951
thorax 0.664862 1.04254 -1.00415
lowerneck 1.27282 9.52846 0.704967
upperneck 13.9372 12.6319 0.313398
head 4.40908 6.20207 0.411871
rclavicle 2.90226e-014 -6.83819e-014
rhumerus -32.8042 17.3498 -99.9707
rradius 47.454
rwrist 3.53438
rhand 9.28736 -1.43542
rfingers 7.12502
rthumb 34.4501 -28.1181
lclavicle 2.90226e-014 -6.83819e-014
lhumerus -42.2502 -10.1608 85.5195
lradius 51.7126
lwrist 4.00632
lhand -12.1625 35.1188
lfingers 7.12502
lthumb 13.9004 64.6342
rfemur -19.0741 17.6396 12.8039
rtibia 19.4826
rfoot -9.45297 6.30604
rtoes -8.53818
lfemur -6.6592 8.49428 -25.6324
ltibia 16.3382
lfoot -25.6062 28.322
ltoes 2.63749
2934
root 0.681444 18.1417 -0.906597 3.56554 -34.453 2.90951
lowerback 6.71213 2.1802 -8.04725
upperback 4.17199 2.34185 -5.13437
thorax 0.472155 1.0419 -0.965656
lowerneck 1.14737 9.47765 0.718067
upperneck 14.0648 12.569 0.294959
head 4.48231 6.16933 0.414081
rclavicle 3.45885e-014 -5.725e-014
rhumerus -32.9295 17.3231 -99.9298
rradius 47.4126
rwrist 3.5688
rhand 9.38829 -1.51214
rfingers 7.12502
rthumb 34.5459 -28.173
lclavicle 3.45885e-014 -5.725e-014
lhumerus -42.2348 -10.506 85.7065
lradius 51.4579
lwrist 4.02329
lhand -12.1658 35.1456
lfingers 7.12502
lthumb 13.8972 64.6613
rfemur -19.0206 17.5732 12.7782
rtibia 19.4256
rfoot -9.44345 6.20577
rtoes -8.38575
lfemur -6.64447 8.37903 -25.6509
ltibia 16.2705
lfoot -25.5554 28.34
ltoes 2.29817
